<?xml version="1.0" encoding="iso-8859-1"?>
<!-- Uploaded to: SVG Repo, www.svgrepo.com, Generator: SVG Repo Mixer Tools -->
<svg fill="#000000" height="800px" width="800px" version="1.1" id="Layer_1" xmlns="http://www.w3.org/2000/svg" xmlns:xlink="http://www.w3.org/1999/xlink" 
	 viewBox="0 0 512 512" xml:space="preserve">
<g>
	<g>
		<path d="M256,128c-91.75,0-166.4,74.65-166.4,166.4S164.25,460.8,256,460.8s166.4-74.65,166.4-166.4S347.75,128,256,128z
			 M256,435.2c-77.764,0-140.8-63.036-140.8-140.8S178.236,153.6,256,153.6s140.8,63.036,140.8,140.8S333.764,435.2,256,435.2z"/>
	</g>
</g>
<g>
	<g>
		<path d="M384,67.166V25.6C384,11.46,372.54,0,358.4,0H153.6C139.46,0,128,11.46,128,25.6v41.429
			C79.019,119.322,25.6,190.114,25.6,281.6C25.6,408.644,128.956,512,256,512s230.4-103.356,230.4-230.4
			C486.4,190.089,432.998,119.467,384,67.166z M153.6,25.6h204.8v35.2H153.6V25.6z M256,486.4c-113.109,0-204.8-91.691-204.8-204.8
			c0-81.186,48.273-146.202,93.79-195.2h222.029c45.508,48.998,93.781,114.014,93.781,195.2C460.8,394.709,369.109,486.4,256,486.4z
			"/>
	</g>
</g>
</svg>